<svg width="298" height="327" viewBox="0 0 298 327" fill="none" xmlns="http://www.w3.org/2000/svg">
<path d="M179.731 167.076V158.901H159.244V167.076C159.244 171.675 155.984 175.251 152.259 175.251H187.181C182.991 175.251 179.731 171.675 179.731 167.076Z" fill="#FFE1BD"/>
<path d="M142.947 175.251H195.562V201.309H142.947V175.251Z" fill="#FFE1BD"/>
<path d="M120.597 175.251C114.078 175.251 110.819 179.339 108.491 181.894L33.9907 274.884H48.8907C60.5313 274.884 64.2563 270.286 67.5157 266.198L140.619 175.251H120.597" fill="#75A843"/>
<path d="M22.8157 223.791L45.1657 238.608C49.3564 241.163 54.4782 240.141 57.272 235.542C60.0657 231.455 58.6689 225.323 54.4782 222.769L32.1282 207.952C27.9376 205.397 22.8157 206.419 20.022 211.017C17.6939 215.105 19.0907 221.236 22.8157 223.791" fill="#E6B796"/>
<path d="M82.4157 246.783C82.4157 249.848 80.0876 252.403 77.2938 252.403H34.4563C31.6626 252.403 29.3345 249.848 29.3345 246.783V141.529C29.3345 138.464 31.6626 135.909 34.4563 135.909H76.8282C79.622 135.909 81.9501 138.464 81.9501 141.529V246.783H82.4157Z" fill="#3E4347"/>
<path d="M55.8748 164.522C58.7035 164.522 60.9967 162.006 60.9967 158.902C60.9967 155.798 58.7035 153.281 55.8748 153.281C53.0461 153.281 50.7529 155.798 50.7529 158.902C50.7529 162.006 53.0461 164.522 55.8748 164.522Z" fill="#B2C1C0"/>
<path d="M55.8748 161.967C57.4178 161.967 58.6686 160.595 58.6686 158.902C58.6686 157.208 57.4178 155.836 55.8748 155.836C54.3319 155.836 53.0811 157.208 53.0811 158.902C53.0811 160.595 54.3319 161.967 55.8748 161.967Z" fill="#3E4347"/>
<path d="M59.6 263.133C59.6 269.775 54.9437 274.884 48.8906 274.884H29.3344C23.2813 274.884 18.625 269.775 18.625 263.133V223.791C18.625 217.148 23.2813 212.039 29.3344 212.039H49.3563C55.4094 212.039 60.0656 217.148 60.0656 223.791V263.133H59.6Z" fill="#FFE1BD"/>
<path d="M248.644 127.223V148.683C248.644 152.77 251.437 155.836 255.162 155.836C258.887 155.836 261.681 152.77 261.681 148.683V127.223C261.681 123.136 258.887 120.07 255.162 120.07C251.437 120.07 248.644 123.136 248.644 127.223Z" fill="#E6B796"/>
<path d="M279.375 174.229C279.375 178.828 275.65 182.915 271.459 182.915H256.559C252.369 182.915 248.644 178.828 248.644 174.229V144.595C248.644 139.997 252.369 135.909 256.559 135.909H271.459C275.65 135.909 279.375 139.997 279.375 144.595V174.229Z" fill="#FFE1BD"/>
<path d="M75.8971 146.639C75.8971 147.661 75.4314 148.172 74.5002 148.172H71.7064C70.7752 148.172 70.3096 147.661 70.3096 146.639V143.573C70.3096 142.551 70.7752 142.041 71.7064 142.041H74.5002C75.4314 142.041 75.8971 142.551 75.8971 143.573V146.639Z" fill="white"/>
<path d="M252.834 181.894C248.178 193.134 243.987 203.353 240.262 212.55C236.537 203.353 232.347 193.134 227.691 181.894C226.294 178.317 222.103 175.251 215.584 175.251H203.478C203.478 175.251 219.775 215.616 225.362 228.9C225.362 229.411 229.553 239.119 238.4 239.119H239.331C242.125 239.119 250.506 238.097 254.231 228.9L273.322 182.405H252.834V181.894Z" fill="#75A843"/>
<path d="M216.05 175.251H189.975C187.647 185.981 179.265 194.156 169.487 194.156C159.709 194.156 151.328 185.981 149 175.251H122.925V306.562C122.925 306.562 138.756 316.781 169.487 316.781C199.753 316.781 216.05 306.562 216.05 306.562V175.251Z" fill="#83BF4F"/>
<path d="M104.3 84.8156L110.819 98.1H227.69L232.812 83.7938C232.812 32.7 221.637 10.7297 169.953 10.2188C117.337 9.70784 104.3 32.7 104.3 84.8156Z" fill="#594640"/>
<path d="M228.156 84.3047C227.691 87.3703 227.225 89.925 226.294 91.4578C224.897 94.5234 222.103 96.0562 222.103 96.0562C222.103 96.0562 223.035 90.4359 222.569 82.2609C219.775 34.7437 216.981 57.7359 169.488 57.7359C121.994 57.7359 119.2 34.7437 116.406 82.2609C115.941 90.4359 116.872 96.0562 116.872 96.0562C116.872 96.0562 114.078 94.5234 112.681 91.4578C111.75 89.925 111.285 86.8594 110.819 84.3047C106.163 82.7719 100.575 84.3047 100.575 98.6109C100.575 107.297 103.369 114.961 113.613 115.472C117.338 145.106 153.191 165.033 169.488 165.033C185.785 165.033 222.103 145.106 225.363 115.472C235.141 114.45 238.4 107.297 238.4 98.6109C238.4 83.7937 232.347 82.7719 228.156 84.3047" fill="#FFE1BD"/>
<path d="M144.809 110.873C150.467 110.873 155.053 105.841 155.053 99.6327C155.053 93.4247 150.467 88.3921 144.809 88.3921C139.152 88.3921 134.565 93.4247 134.565 99.6327C134.565 105.841 139.152 110.873 144.809 110.873Z" fill="#664E27"/>
<path d="M193.7 110.873C199.357 110.873 203.944 105.841 203.944 99.6327C203.944 93.4247 199.357 88.3921 193.7 88.3921C188.042 88.3921 183.456 93.4247 183.456 99.6327C183.456 105.841 188.042 110.873 193.7 110.873Z" fill="#664E27"/>
<path d="M188.112 136.42C188.112 144.084 178.8 148.172 169.487 148.172C160.175 148.172 150.862 144.084 150.862 136.42C150.862 136.42 150.862 134.376 152.725 134.376H186.25C188.112 134.376 188.112 136.42 188.112 136.42Z" fill="#664E27"/>
</svg>
