<svg width="34" height="30" viewBox="0 0 34 30" fill="none" xmlns="http://www.w3.org/2000/svg">
<path d="M26.21 16.7L20 21.6667H11.6667V20H18.4417C18.5924 19.9999 18.7403 19.959 18.8696 19.8815C18.9989 19.804 19.1048 19.6929 19.1759 19.56C19.247 19.4271 19.2808 19.2774 19.2736 19.1268C19.2664 18.9763 19.2185 18.8305 19.135 18.705L17.655 16.485C17.3514 16.028 16.9394 15.6533 16.4558 15.3942C15.9722 15.135 15.432 14.9996 14.8833 15H1.66667C1.22464 15 0.800716 15.1756 0.488155 15.4882C0.175595 15.8007 0 16.2246 0 16.6667V26.6667C0 27.5507 0.351189 28.3986 0.976311 29.0237C1.60143 29.6488 2.44928 30 3.33333 30H19.3983C20.111 30.0002 20.8155 29.848 21.4646 29.5536C22.1136 29.2593 22.6922 28.8296 23.1617 28.2933L33.3333 16.6667L30.9133 15.86C30.1216 15.5961 29.2763 15.5347 28.4548 15.6814C27.6332 15.8282 26.8614 16.1783 26.21 16.7ZM28.7633 7.31667C29.515 6.54167 29.98 5.47 29.98 4.28667C29.98 3.10333 29.515 2.03167 28.7633 1.25667C28.3832 0.859964 27.9268 0.54416 27.4216 0.328213C26.9164 0.112266 26.3728 0.000627728 25.8233 1.07355e-07C25.8233 1.07355e-07 23.75 -0.00500011 21.6667 2.14333C19.5833 -0.00500011 17.51 1.07355e-07 17.51 1.07355e-07C16.9607 0.000698607 16.4173 0.112205 15.9121 0.327846C15.4069 0.543487 14.9504 0.858829 14.57 1.255C13.8183 2.03167 13.3533 3.10167 13.3533 4.285C13.3533 5.46833 13.8183 6.54167 14.57 7.315L21.6667 15L28.7633 7.31667Z" fill="#3E4958"/>
</svg>
