<svg width="60" height="60" viewBox="0 0 60 60" fill="none" xmlns="http://www.w3.org/2000/svg">
<path fill-rule="evenodd" clip-rule="evenodd" d="M42.6391 0C53.024 0 60 6.4882 60 16.1436V43.8564C60 53.5962 53.2387 59.9307 42.7746 59.991L17.3642 60C6.97936 60 0 53.5118 0 43.8564V16.1436C0 6.4008 6.76136 0.0693119 17.2254 0.0120542L42.6358 0H42.6391ZM42.6391 4.52034L17.2419 4.5324C9.55244 4.57459 4.95458 8.91411 4.95458 16.1436V43.8564C4.95458 51.1341 9.59538 55.4797 17.3609 55.4797L42.7581 55.4706C50.4476 55.4284 55.0454 51.0829 55.0454 43.8564V16.1436C55.0454 8.8659 50.4079 4.52034 42.6391 4.52034ZM42.002 40.6038C43.3695 40.6038 44.4793 41.6164 44.4793 42.864C44.4793 44.1116 43.3695 45.1242 42.002 45.1242H18.1539C16.7865 45.1242 15.6766 44.1116 15.6766 42.864C15.6766 41.6164 16.7865 40.6038 18.1539 40.6038H42.002ZM42.002 27.9875C43.3695 27.9875 44.4793 29.0001 44.4793 30.2477C44.4793 31.4953 43.3695 32.5079 42.002 32.5079H18.1539C16.7865 32.5079 15.6766 31.4953 15.6766 30.2477C15.6766 29.0001 16.7865 27.9875 18.1539 27.9875H42.002ZM27.2529 15.4005C28.6203 15.4005 29.7301 16.4131 29.7301 17.6607C29.7301 18.9083 28.6203 19.9208 27.2529 19.9208H18.1529C16.7855 19.9208 15.6756 18.9083 15.6756 17.6607C15.6756 16.4131 16.7855 15.4005 18.1529 15.4005H27.2529Z" fill="#082F37"/>
</svg>
