<svg width="51" height="50" viewBox="0 0 51 50" fill="none" xmlns="http://www.w3.org/2000/svg">
<path d="M50.4707 25C50.4707 24.337 50.2073 23.7011 49.7385 23.2322C49.2696 22.7634 48.6337 22.5 47.9707 22.5C47.3077 22.5 46.6718 22.7634 46.2029 23.2322C45.7341 23.7011 45.4707 24.337 45.4707 25H50.4707ZM25.4707 5C26.1337 5 26.7696 4.73661 27.2385 4.26777C27.7073 3.79893 27.9707 3.16304 27.9707 2.5C27.9707 1.83696 27.7073 1.20107 27.2385 0.732233C26.7696 0.263392 26.1337 0 25.4707 0V5ZM44.2207 45H6.7207V50H44.2207V45ZM5.4707 43.75V6.25H0.470703V43.75H5.4707ZM45.4707 25V43.75H50.4707V25H45.4707ZM6.7207 5H25.4707V0H6.7207V5ZM6.7207 45C6.38918 45 6.07124 44.8683 5.83682 44.6339C5.6024 44.3995 5.4707 44.0815 5.4707 43.75H0.470703C0.470703 45.4076 1.12918 46.9973 2.30129 48.1694C3.47339 49.3415 5.0631 50 6.7207 50V45ZM44.2207 50C45.8783 50 47.468 49.3415 48.6401 48.1694C49.8122 46.9973 50.4707 45.4076 50.4707 43.75H45.4707C45.4707 44.0815 45.339 44.3995 45.1046 44.6339C44.8702 44.8683 44.5522 45 44.2207 45V50ZM5.4707 6.25C5.4707 5.91848 5.6024 5.60054 5.83682 5.36612C6.07124 5.1317 6.38918 5 6.7207 5V0C5.0631 0 3.47339 0.65848 2.30129 1.83058C1.12918 3.00269 0.470703 4.5924 0.470703 6.25H5.4707Z" fill="#3E4958"/>
<path d="M2.9707 38.75L16.337 26.4975C16.7875 26.0846 17.3736 25.851 17.9846 25.8409C18.5957 25.8307 19.1892 26.0448 19.6532 26.4425L35.4707 40M30.4707 33.75L36.437 27.7837C36.8625 27.3579 37.4274 27.1 38.0279 27.0572C38.6284 27.0145 39.2242 27.1899 39.7057 27.5513L47.9707 33.75M41.7207 17.5V2.5M35.4707 8.75L41.7207 2.5L47.9707 8.75" stroke="#3E4958" stroke-width="4" stroke-linecap="round" stroke-linejoin="round"/>
</svg>
