<svg width="40" height="40" viewBox="0 0 40 40" fill="none" xmlns="http://www.w3.org/2000/svg">
<path d="M19.9969 0C24.1389 0 27.4824 2.68 27.4824 6C27.4824 9.32 24.1389 12 19.9969 12C15.8549 12 12.5114 9.32 12.5114 6C12.5114 2.68 15.8549 0 19.9969 0ZM39.9583 32L34.9679 21.12C34.0946 19.14 33.3211 17.42 29.9776 16C26.5592 14.6 24.064 14 19.9969 14C15.9797 14 13.4845 14.6 10.0162 16C6.72256 17.42 5.94906 19.14 5.02585 21.12L0.0354964 32C-0.538394 34.26 5.97401 36.88 10.3406 38.38C13.3597 39.44 16.6035 40 19.9969 40C23.4402 40 26.659 39.44 29.7031 38.38C34.0697 36.88 40.5821 34.26 39.9583 32ZM28.5304 31L19.9969 38L11.4634 31C10.5651 30.24 10.0162 29.22 10.0162 28.1C10.0162 25.84 12.2619 24 15.0065 24C16.3789 24 17.6514 24.46 18.5497 25.22L19.9969 26.4L21.4441 25.2C22.3424 24.46 23.6149 24 24.9872 24C27.7569 24 29.9776 25.84 29.9776 28.1C29.9776 29.22 29.4287 30.26 28.5304 31Z" fill="#3E4958"/>
</svg>
